<?xml version="1.0" standalone="no"?>
<!DOCTYPE svg PUBLIC "-//W3C//DTD SVG 20010904//EN"
 "http://www.w3.org/TR/2001/REC-SVG-20010904/DTD/svg10.dtd">
<svg version="1.0" xmlns="http://www.w3.org/2000/svg"
 width="171.000000pt" height="41.000000pt" viewBox="0 0 171.000000 41.000000"
 preserveAspectRatio="xMidYMid meet">

<g transform="translate(0.000000,41.000000) scale(0.100000,-0.100000)"
fill="#000000" stroke="none">
<path d="M1040 205 l0 -205 35 0 c24 0 35 5 35 14 0 13 4 13 28 0 54 -28 129
-6 162 48 40 66 18 177 -42 209 -29 16 -105 16 -120 1 -23 -23 -28 -11 -28 63
l0 75 -35 0 -35 0 0 -205z m182 11 c42 -31 44 -114 4 -141 -29 -21 -72 -19
-96 5 -31 31 -28 102 6 129 30 24 61 26 86 7z"/>
<path d="M80 273 c-55 -28 -83 -78 -78 -139 5 -58 29 -97 75 -119 59 -29 133
-12 167 37 21 29 20 33 -8 46 -20 9 -27 7 -45 -14 -38 -43 -102 -28 -120 29
-14 41 -2 78 31 101 32 23 55 20 84 -11 21 -23 27 -25 49 -15 20 10 24 16 16
29 -33 62 -111 87 -171 56z"/>
<path d="M376 280 c-119 -36 -129 -204 -16 -263 40 -21 107 -17 142 7 64 45
79 149 31 207 -43 51 -95 67 -157 49z m85 -63 c66 -51 37 -157 -43 -157 -42 0
-68 32 -68 84 0 36 5 48 26 65 30 23 61 26 85 8z"/>
<path d="M570 144 l0 -145 33 3 32 3 3 90 c3 100 16 125 64 125 25 0 28 3 28
35 0 42 -18 46 -67 15 -33 -20 -33 -20 -33 0 0 16 -7 20 -30 20 l-30 0 0 -146z"/>
<path d="M835 276 c-93 -43 -119 -163 -51 -231 54 -54 156 -56 208 -5 34 35
35 48 4 56 -17 4 -31 -1 -45 -15 -39 -39 -131 -18 -131 30 0 18 8 19 106 19
l107 0 -6 36 c-15 93 -111 148 -192 110z m109 -68 c9 -12 16 -26 16 -30 0 -5
-31 -8 -70 -8 -74 0 -84 8 -53 42 24 27 87 24 107 -4z"/>
<path d="M1340 145 l0 -145 30 0 30 0 0 145 0 145 -30 0 -30 0 0 -145z"/>
<path d="M1420 260 l0 -30 87 0 88 0 -88 -88 c-67 -67 -87 -94 -87 -115 l0
-27 140 0 140 0 0 30 0 30 -87 0 -88 0 88 87 c69 68 87 92 87 114 l0 29 -140
0 -140 0 0 -30z"/>
</g>
</svg>
